<?xml version="1.0" standalone="no"?>
<!DOCTYPE svg PUBLIC "-//W3C//DTD SVG 20010904//EN"
 "http://www.w3.org/TR/2001/REC-SVG-20010904/DTD/svg10.dtd">
<svg version="1.0" xmlns="http://www.w3.org/2000/svg"
 width="200.000000pt" height="200.000000pt" viewBox="0 0 200.000000 200.000000"
 preserveAspectRatio="xMidYMid meet">

<g transform="translate(0.000000,200.000000) scale(0.100000,-0.100000)"
fill="#6f6f6f" stroke="none">
<path d="M983 1653 c9 -2 23 -2 30 0 6 3 -1 5 -18 5 -16 0 -22 -2 -12 -5z"/>
<path d="M795 1589 c-66 -21 -126 -47 -133 -57 -8 -10 -12 -32 -9 -55 3 -21 1
-35 -4 -31 -5 3 -9 0 -9 -5 0 -6 -10 -11 -23 -11 -43 0 -172 -42 -196 -63 -26
-25 -81 -101 -81 -114 0 -4 15 15 34 42 48 71 62 81 146 103 98 26 105 25 106
-12 l1 -31 -12 29 c-12 29 -13 29 -31 -43 -20 -76 -34 -91 -87 -91 -18 0 -19
2 -7 10 8 5 10 10 4 10 -5 0 -19 -7 -30 -15 -10 -8 -27 -15 -37 -15 -10 0 -16
-4 -13 -9 6 -9 56 -3 56 8 0 3 20 7 45 7 83 3 39 -41 -55 -54 -42 -6 -53 -10
-30 -11 50 -1 113 15 126 34 6 8 17 43 25 78 11 53 14 58 21 37 5 -18 6 -14 3
15 -4 33 -3 36 5 17 6 -14 7 -48 3 -80 l-8 -57 -6 40 -6 40 -1 -35 c0 -37 15
-99 17 -67 1 9 4 16 9 15 4 0 23 6 42 15 19 9 28 16 21 17 -12 0 -12 3 -3 12
10 10 14 10 21 0 7 -11 14 -11 42 1 59 26 68 38 71 99 4 80 21 59 43 -53 10
-49 20 -88 22 -85 7 7 -29 175 -41 190 -7 10 -37 16 -86 19 -68 4 -75 6 -78
27 -9 55 2 65 115 103 60 21 113 37 120 37 7 0 14 -19 16 -42 3 -35 4 -33 3
10 l-1 53 30 -5 c17 -2 59 -1 95 3 64 8 64 8 -35 9 -91 1 -111 -2 -220 -39z
m-82 -176 c-7 -2 -21 -2 -30 0 -10 3 -4 5 12 5 17 0 24 -2 18 -5z m-34 -29
c-6 -8 -9 -30 -7 -49 4 -31 1 -35 -20 -35 -22 0 -23 3 -18 53 3 28 5 53 5 53
1 1 12 -1 26 -4 20 -3 23 -7 14 -18z m120 -23 c2 -42 -2 -52 -25 -70 -36 -28
-45 -26 -38 7 3 16 1 45 -4 65 l-10 36 36 4 c21 2 37 4 38 5 0 1 1 -20 3 -47z
m-129 -91 c-6 -11 -19 -24 -30 -30 -17 -9 -20 -8 -20 13 0 30 7 37 37 37 21 0
22 -3 13 -20z"/>
<path d="M1080 1610 l-45 -7 50 0 c28 0 64 3 80 7 l30 8 -35 -1 c-19 0 -55 -3
-80 -7z"/>
<path d="M1175 1602 c-21 -3 0 -10 74 -22 57 -10 111 -16 119 -12 9 3 13 1 9
-5 -4 -6 4 -14 18 -17 18 -5 27 -15 32 -37 4 -22 8 -27 15 -17 5 8 6 -2 3 -27
-5 -30 -4 -36 4 -25 9 11 10 4 6 -30 -5 -40 -4 -42 6 -18 12 32 -6 142 -22
132 -6 -3 -9 2 -7 12 4 24 -74 55 -122 48 -27 -4 -32 -2 -20 6 11 9 4 10 -30
6 -32 -4 -39 -3 -25 3 18 9 18 10 -5 9 -14 -1 -38 -3 -55 -6z"/>
<path d="M822 1360 c0 -19 2 -27 5 -17 2 9 2 25 0 35 -3 9 -5 1 -5 -18z"/>
<path d="M1467 1370 c-4 -14 -6 -36 -6 -50 1 -22 2 -20 10 8 6 19 9 41 7 50
-3 12 -6 10 -11 -8z"/>
<path d="M923 1270 c0 -47 2 -66 4 -42 2 23 2 61 0 85 -2 23 -4 4 -4 -43z"/>
<path d="M1475 1285 c-4 -25 -5 -48 -2 -51 3 -3 9 15 12 41 4 25 5 48 2 51 -3
3 -9 -15 -12 -41z"/>
<path d="M832 1290 c0 -19 2 -27 5 -17 2 9 2 25 0 35 -3 9 -5 1 -5 -18z"/>
<path d="M377 1244 c-15 -8 -31 -12 -36 -10 -5 3 -12 -1 -15 -10 -11 -28 -6
-36 10 -20 8 9 27 16 42 17 15 0 21 3 14 6 -10 4 -9 8 5 19 24 18 15 17 -20
-2z"/>
<path d="M1487 1231 c-4 -18 -6 -50 -6 -70 1 -30 3 -27 10 19 11 61 7 104 -4
51z"/>
<path d="M840 1222 c0 -23 -4 -28 -22 -28 -18 1 -24 -5 -26 -26 -3 -25 0 -28
27 -28 20 0 31 -6 34 -17 3 -10 5 -3 6 15 0 17 -3 32 -8 32 -5 0 -7 18 -4 40
3 22 3 40 -1 40 -3 0 -6 -13 -6 -28z"/>
<path d="M882 1190 c0 -14 2 -19 5 -12 2 6 2 18 0 25 -3 6 -5 1 -5 -13z"/>
<path d="M1502 1169 c-1 -15 -4 -42 -7 -60 -5 -31 -5 -32 5 -9 6 13 9 40 7 60
-3 25 -4 28 -5 9z"/>
<path d="M310 1109 c0 -38 4 -68 9 -65 9 6 21 -39 21 -77 0 -30 -18 -9 -23 28
-2 17 -4 6 -4 -23 0 -29 3 -49 6 -43 3 5 27 7 54 4 44 -5 47 -8 47 -33 0 -41
10 -60 31 -60 14 0 19 7 18 28 -2 24 -2 24 -6 4 -6 -33 -27 -22 -31 16 -3 31
11 44 21 20 3 -8 6 -6 6 5 1 15 12 17 89 18 48 0 81 3 74 6 -27 11 23 32 75
33 52 0 52 0 63 38 13 52 40 74 81 70 18 -2 34 -8 36 -15 3 -9 -3 -9 -26 0
-27 10 -34 9 -51 -8 -11 -11 -22 -36 -25 -55 l-5 -35 11 35 c15 49 32 64 63
56 35 -9 33 -32 -4 -39 -19 -4 -37 -18 -48 -37 -10 -16 -22 -27 -25 -23 -13
13 -5 -63 11 -107 22 -59 41 -85 78 -105 29 -17 29 -17 -26 -10 -39 4 -64 14
-85 33 l-30 27 31 -33 c28 -31 37 -34 107 -39 75 -6 76 -5 107 25 25 25 29 37
24 59 -4 21 -3 25 5 13 8 -11 11 -3 11 35 0 36 -3 46 -10 35 -8 -13 -10 -12
-10 4 0 11 -11 39 -25 63 -14 23 -33 79 -42 123 -9 44 -18 78 -20 76 -4 -4 8
-77 23 -141 3 -11 -7 3 -21 31 l-25 51 -41 -7 c-49 -9 -57 -16 -74 -66 -12
-35 -17 -39 -50 -42 -44 -4 -51 4 -60 65 -3 24 -11 41 -16 37 -6 -3 -8 4 -4
18 3 12 1 37 -5 53 l-10 30 5 -35 c5 -33 3 -35 -25 -36 -41 -2 -80 -30 -79
-57 2 -22 2 -22 6 1 3 15 17 29 38 38 48 20 53 18 61 -21 3 -19 9 -33 13 -31
8 5 8 -70 0 -78 -2 -3 -26 -7 -52 -9 l-47 -5 -2 42 -1 41 -4 -37 -4 -38 -83 0
-82 0 -13 53 c-7 28 -15 75 -18 104 l-5 52 39 4 38 4 -42 1 -43 2 0 -71z m577
-81 c-3 -8 -6 -5 -6 6 -1 11 2 17 5 13 3 -3 4 -12 1 -19z m-12 -78 c3 -11 10
-20 15 -20 5 0 7 7 4 15 -8 21 0 19 22 -7 10 -12 13 -18 7 -14 -7 4 -13 2 -13
-3 0 -6 5 -11 11 -11 6 0 9 -7 5 -15 -3 -8 -2 -15 3 -15 5 0 9 -11 9 -25 0
-14 -5 -22 -10 -19 -6 4 -7 -2 -3 -17 7 -21 6 -22 -9 -10 -14 12 -16 12 -10
-2 4 -12 0 -15 -21 -13 -28 3 -53 22 -42 32 4 4 13 1 22 -6 10 -8 15 -9 15 -1
0 10 -5 13 -40 15 -9 1 -15 11 -14 24 0 12 -3 22 -8 22 -4 0 -8 7 -8 15 0 8 5
15 11 15 5 0 7 5 4 11 -7 10 21 49 36 49 4 0 11 -9 14 -20z m95 -184 c0 -2 -8
-10 -17 -17 -16 -13 -17 -12 -4 4 13 16 21 21 21 13z"/>
<path d="M840 943 c0 -6 7 -16 15 -23 16 -13 21 -55 8 -63 -5 -2 -3 -2 4 -1 7
2 15 -1 18 -6 10 -17 25 -11 25 9 0 27 -10 51 -22 51 -6 0 -19 10 -29 22 -11
11 -19 16 -19 11z"/>
<path d="M931 1123 c-1 -28 3 -54 8 -57 5 -3 6 16 4 42 -7 69 -11 74 -12 15z"/>
<path d="M1510 1081 c0 -15 -8 -21 -37 -24 l-38 -4 43 -1 c39 -2 42 0 42 23 0
14 -2 25 -5 25 -3 0 -5 -9 -5 -19z"/>
<path d="M354 1039 c3 -17 6 -38 6 -45 0 -11 17 -14 70 -14 l70 0 0 45 0 45
-76 0 -76 0 6 -31z"/>
<path d="M1020 1050 c0 -15 -7 -20 -29 -20 -17 0 -32 -3 -35 -8 -2 -4 13 -6
35 -4 33 4 39 7 39 28 0 13 -2 24 -5 24 -3 0 -5 -9 -5 -20z"/>
<path d="M1118 1063 c39 -3 62 -8 62 -16 0 -9 2 -9 8 0 5 8 46 13 122 16 63 1
32 3 -70 3 -102 0 -157 -1 -122 -3z"/>
<path d="M1249 1034 c-22 -26 -24 -146 -4 -207 33 -101 92 -147 126 -97 14 20
14 20 41 -5 15 -14 32 -25 37 -25 17 0 41 43 41 73 0 15 4 26 9 23 5 -3 12 1
15 10 4 10 14 14 26 11 11 -3 20 -1 20 4 0 14 -48 11 -57 -3 -5 -8 -10 9 -14
43 -12 112 -76 190 -126 154 -15 -11 -21 -10 -40 11 -26 28 -55 31 -74 8z m76
-124 c17 -32 20 -96 5 -105 -14 -9 -43 42 -37 65 3 11 1 18 -4 14 -12 -7 -11
13 1 37 14 25 17 24 35 -11z m103 -7 c15 -30 13 -93 -3 -93 -17 0 -41 71 -32
94 8 21 24 20 35 -1z m37 -183 c-3 -5 -12 -10 -18 -10 -7 0 -6 4 3 10 19 12
23 12 15 0z"/>
<path d="M1490 1026 c0 -8 -8 -17 -17 -19 -14 -4 -12 -5 5 -6 16 -1 22 5 22
19 0 11 -2 20 -5 20 -3 0 -5 -6 -5 -14z"/>
<path d="M1096 1022 c-2 -4 12 -6 32 -4 56 5 62 10 15 11 -23 1 -44 -3 -47 -7z"/>
<path d="M1010 990 l25 -7 -30 -5 -30 -5 29 -2 28 -1 -4 -68 -3 -67 70 2 c38
1 73 2 78 2 4 1 7 31 7 67 0 52 -4 70 -17 80 -23 17 -55 18 -71 2 -10 -10 -17
-10 -32 0 -11 6 -32 12 -47 11 l-28 -1 25 -8z m50 -80 c0 -33 -4 -60 -10 -60
-6 0 -10 27 -10 60 0 33 4 60 10 60 6 0 10 -27 10 -60z m80 0 l0 -60 -35 0
-35 0 0 60 0 60 35 0 35 0 0 -60z m17 -32 c-2 -18 -4 -4 -4 32 0 36 2 50 4 33
2 -18 2 -48 0 -65z"/>
<path d="M1490 983 c8 -3 19 -11 23 -17 6 -7 7 -6 4 4 -2 8 -12 16 -23 17 -13
2 -15 1 -4 -4z"/>
<path d="M640 946 c0 -2 9 -6 20 -9 11 -3 18 -1 14 4 -5 9 -34 13 -34 5z"/>
<path d="M1521 934 c0 -11 3 -14 6 -6 3 7 2 16 -1 19 -3 4 -6 -2 -5 -13z"/>
<path d="M703 925 c-3 -9 -3 -19 1 -22 3 -4 6 1 6 10 0 10 7 17 16 17 10 0 14
-6 10 -15 -3 -8 -1 -15 4 -15 6 0 10 9 10 20 0 24 -38 28 -47 5z"/>
<path d="M682 873 l-2 -52 -92 -4 -93 -3 93 -2 c104 -2 106 -1 99 69 -3 44 -4
44 -5 -8z"/>
<path d="M321 898 c-2 -36 21 -68 48 -67 l26 1 -25 7 c-17 4 -29 18 -37 41 -7
19 -12 27 -12 18z"/>
<path d="M1520 900 c-13 -8 -12 -10 3 -10 9 0 17 5 17 10 0 12 -1 12 -20 0z"/>
<path d="M749 855 c-3 -21 -11 -31 -29 -36 -20 -6 -21 -7 -5 -8 33 -1 47 14
43 45 l-4 29 -5 -30z"/>
<path d="M1565 853 c-5 -15 -4 -16 6 -5 21 20 47 14 63 -15 8 -16 15 -23 16
-18 1 42 -71 74 -85 38z"/>
<path d="M400 816 c0 -8 12 -24 26 -35 21 -17 41 -21 98 -21 69 0 96 10 96 34
0 6 -5 3 -11 -6 -14 -24 -144 -26 -177 -2 -33 23 -27 32 21 37 l42 4 -47 1
c-36 2 -48 -2 -48 -12z"/>
<path d="M1680 817 c46 -23 34 -87 -16 -87 -17 0 -28 9 -37 26 l-12 27 -5 -24
c-4 -14 -13 -23 -23 -23 -9 1 -14 -2 -12 -7 3 -4 18 -8 33 -7 15 0 37 -3 49
-7 28 -9 63 25 63 63 0 33 -16 52 -44 52 -19 0 -18 -2 4 -13z"/>
<path d="M1140 752 c0 -20 53 -52 84 -51 29 1 28 2 -8 9 -22 4 -48 18 -58 30
-10 12 -18 18 -18 12z"/>
<path d="M1370 715 c-7 -9 -32 -16 -59 -17 -45 -1 -45 -1 -7 -5 21 -3 46 -1
55 3 9 4 23 7 31 6 10 -1 11 0 2 4 -6 3 -10 10 -6 15 9 15 -2 10 -16 -6z"/>
<path d="M392 608 c-10 -10 -6 -19 25 -45 l38 -33 8 36 c4 21 6 39 4 40 -12
12 -64 13 -75 2z"/>
<path d="M530 607 c0 -7 27 -33 60 -57 33 -24 58 -45 56 -48 -3 -2 -34 13 -69
32 -73 41 -70 43 -83 -46 -6 -46 -5 -48 19 -48 25 0 37 16 37 51 0 29 17 14
25 -21 5 -25 12 -30 35 -30 27 0 30 5 53 78 13 42 22 80 20 85 -2 4 -15 7 -28
7 -18 0 -25 -7 -30 -31 -8 -34 -21 -28 -27 11 -2 20 -9 26 -35 28 -23 2 -33
-1 -33 -11z"/>
<path d="M705 610 c-12 -19 25 -50 51 -44 19 5 24 2 24 -14 0 -22 37 -55 52
-46 15 9 8 70 -9 87 -24 20 -108 33 -118 17z"/>
<path d="M881 601 c-9 -16 -4 -25 29 -55 44 -39 55 -43 63 -22 7 18 -1 26 -25
26 -10 0 -18 5 -18 11 0 8 11 9 31 5 17 -3 35 -6 40 -6 4 0 10 -9 14 -19 3
-10 19 -24 35 -31 28 -12 44 -38 18 -27 -49 18 -56 18 -63 -4 -9 -28 8 -39 66
-39 80 0 103 58 43 108 -23 19 -25 23 -9 19 11 -3 27 -8 35 -11 9 -4 20 2 28
14 11 18 9 21 -15 31 -50 19 -78 21 -97 6 -17 -13 -15 -16 33 -51 29 -21 50
-40 48 -43 -7 -7 -117 61 -117 73 0 10 -82 34 -115 34 -8 0 -19 -9 -24 -19z"/>
<path d="M1196 605 c-3 -10 11 -26 47 -50 40 -27 53 -32 57 -21 3 8 18 25 34
37 l30 23 -35 7 c-25 6 -39 3 -51 -8 -17 -15 -18 -14 -18 5 0 18 -6 22 -29 22
-16 0 -31 -6 -35 -15z"/>
<path d="M1424 609 c-6 -11 52 -79 68 -79 4 0 8 17 8 39 0 32 -4 40 -22 45
-33 8 -46 7 -54 -5z"/>
<path d="M1560 613 c0 -20 32 -38 73 -42 4 -1 7 -6 7 -12 0 -7 8 -18 18 -26
15 -13 15 -13 -6 -3 -12 6 -27 8 -32 5 -5 -3 -18 3 -30 15 -32 32 -47 25 -54
-27 -4 -27 -9 -56 -12 -65 -4 -14 1 -18 24 -18 24 0 32 6 39 27 l10 28 6 -28
c6 -22 13 -27 38 -27 29 0 30 2 24 30 -5 22 -1 37 14 56 26 33 26 46 2 68 -21
19 -121 35 -121 19z"/>
<path d="M330 500 l-30 -60 30 0 c16 0 30 5 30 10 0 6 11 10 25 10 14 0 25 -4
25 -10 0 -5 14 -10 31 -10 30 0 31 2 25 31 -3 17 -6 35 -6 39 0 4 -11 12 -25
18 -22 10 -25 9 -25 -8 0 -11 -7 -20 -15 -20 -11 0 -12 5 -5 24 8 22 -2 36
-26 36 -2 0 -17 -27 -34 -60z"/>
<path d="M687 553 c-3 -5 -8 -32 -12 -60 l-7 -53 54 0 c83 0 129 43 73 68 -21
10 -25 9 -25 -3 0 -14 -4 -16 -27 -15 -5 1 -7 12 -5 25 4 28 -39 59 -51 38z"/>
<path d="M1171 510 c-15 -69 -15 -70 17 -70 22 0 31 7 39 28 l10 27 8 -27 c6
-24 13 -28 41 -28 37 0 39 5 24 44 -6 18 -27 34 -66 51 -31 14 -58 25 -59 25
-2 0 -8 -23 -14 -50z"/>
<path d="M1367 505 c-15 -30 -27 -58 -27 -60 0 -10 49 -5 55 5 3 6 17 10 31
10 13 0 24 -4 24 -10 0 -5 12 -10 28 -10 26 0 27 2 24 39 -3 29 -10 41 -28 50
-33 15 -34 14 -34 -9 0 -11 -4 -20 -9 -20 -6 0 -9 12 -8 27 4 50 -26 38 -56
-22z"/>
<path d="M857 542 c-3 -4 -8 -28 -11 -54 l-7 -48 70 0 c64 0 71 2 71 20 0 16
-7 20 -35 20 -35 0 -49 16 -20 22 9 2 -1 12 -25 25 -21 13 -41 20 -43 15z"/>
<path d="M562 388 c-17 -17 -15 -67 4 -75 8 -3 21 0 27 7 10 10 8 12 -5 7 -20
-7 -25 18 -8 43 9 13 11 13 19 0 12 -18 26 -7 18 15 -7 18 -38 20 -55 3z"/>
<path d="M630 361 c-12 -25 -16 -42 -10 -46 6 -3 10 -1 10 4 0 6 9 11 20 11
11 0 20 -4 20 -10 0 -5 5 -10 10 -10 6 0 10 20 10 45 0 38 -3 45 -20 45 -13 0
-27 -14 -40 -39z m40 -1 c0 -5 -5 -10 -11 -10 -5 0 -7 5 -4 10 3 6 8 10 11 10
2 0 4 -4 4 -10z"/>
<path d="M712 388 c-7 -7 -12 -28 -12 -47 0 -26 3 -32 12 -23 8 8 17 8 30 1
17 -9 19 -8 14 9 -4 11 -3 23 2 26 6 3 12 -3 15 -14 7 -26 33 -36 52 -20 21
17 19 30 -6 30 -11 0 -17 -4 -14 -10 3 -5 1 -10 -4 -10 -15 0 -14 13 4 36 8
11 15 14 15 7 0 -19 20 -16 20 2 0 21 -27 30 -46 15 -11 -10 -18 -10 -26 -2
-15 15 -41 15 -56 0z m38 -18 c0 -5 -4 -10 -10 -10 -5 0 -10 5 -10 10 0 6 5
10 10 10 6 0 10 -4 10 -10z"/>
<path d="M861 361 c-13 -24 -17 -42 -11 -46 6 -3 10 -1 10 4 0 6 9 11 20 11
11 0 20 -5 20 -12 0 -9 3 -9 11 -1 6 6 9 26 7 44 -5 50 -32 50 -57 0z"/>
<path d="M976 388 c-20 -64 -12 -89 21 -69 14 8 15 10 3 11 -13 0 -13 1 0 11
11 8 12 12 2 16 -17 7 -5 23 18 23 23 0 33 -25 15 -40 -8 -7 -12 -16 -9 -22 3
-5 11 -5 19 2 9 8 15 8 20 0 10 -16 25 -12 18 6 -3 8 0 26 7 40 15 28 7 42
-14 25 -10 -8 -16 -9 -21 -1 -9 14 -75 13 -79 -2z"/>
<path d="M1124 392 c-7 -4 -13 -20 -14 -37 -3 -44 -2 -47 18 -27 10 9 27 22
37 28 12 6 16 16 12 27 -7 18 -33 22 -53 9z m31 -22 c-3 -5 -11 -10 -16 -10
-6 0 -7 5 -4 10 3 6 11 10 16 10 6 0 7 -4 4 -10z"/>
<path d="M1203 392 c-15 -9 -27 -58 -18 -72 6 -9 10 -9 15 1 7 10 12 10 26 -2
15 -12 16 -12 10 7 -4 15 -2 24 9 28 10 4 15 -1 15 -14 0 -25 16 -34 37 -21
17 10 17 10 -1 11 -20 0 -20 0 0 15 11 8 14 15 7 15 -18 0 -16 20 2 20 8 0 15
5 15 10 0 14 -47 12 -54 -2 -5 -10 -7 -10 -12 0 -6 13 -33 16 -51 4z m32 -22
c-3 -5 -10 -10 -16 -10 -5 0 -9 5 -9 10 0 6 7 10 16 10 8 0 12 -4 9 -10z"/>
<path d="M1331 383 c-7 -13 -5 -23 6 -35 15 -17 15 -18 -2 -18 -41 0 -1 -14
45 -16 56 -2 70 8 46 35 -9 10 -13 21 -10 24 4 4 13 -1 20 -11 12 -16 13 -15
14 6 0 27 -24 39 -44 23 -10 -8 -16 -9 -21 -1 -10 16 -43 12 -54 -7z m37 -15
c-2 -7 2 -12 7 -13 6 0 19 -6 30 -12 l20 -12 -20 0 c-11 0 -28 6 -37 13 -20
14 -24 36 -8 36 6 0 9 -5 8 -12z"/>
</g>
</svg>
